<svg width="100" height="100" version="1.1" viewBox="0 0 26.458 26.458" xmlns="http://www.w3.org/2000/svg"><g display="none" opacity=".15586"><circle cx="13.229" cy="13.229" r="13.229" fill="#262626" fill-rule="evenodd"/></g><g fill-rule="evenodd"><circle cx="-15.497" cy="9.3946" r="11.906" fill="#efefef"/><g fill="#efefef"><circle cx="7.6068" cy="16.867" r="4.6302"/><circle cx="18.852" cy="9.5911" r="4.6302"/><path d="m5.0312 13.019 11.475-7.4205 5.0923 7.7196-11.816 7.6356z"/></g><g transform="translate(.33073 2.9766)" fill="#ca6a7f"><circle cx="18.521" cy="6.6146" r="1.9844"/><circle cx="7.276" cy="13.891" r="1.9844"/><path d="m17.575 4.8702-11.31 7.3132 2.0667 3.3878 11.315-7.3225z"/></g></g><g display="none" fill="#ae586b"><circle cx="6.7469" cy="17.33" r=".13229" fill-rule="evenodd"/><path d="m6.7469 17.33-0.41656-0.93318z"/><g><path d="m6.5024 16.93c0.094861 0.21251 0.24451 0.40056 0.24451 0.40056s-0.040071-0.23696-0.13493-0.44947l-0.090567-0.20289c-0.068135-0.15264-0.19106-0.28082-0.19106-0.28082s0.013346 0.1771 0.081481 0.32973z"/><path d="m6.9914 17.731c-0.094861-0.21251-0.24451-0.40056-0.24451-0.40056s0.040071 0.23696 0.13493 0.44947l0.090568 0.20289c0.068135 0.15264 0.19106 0.28082 0.19106 0.28082s-0.013346-0.1771-0.081481-0.32973z"/><path d="m7.1388 17.287c-0.19466-0.0083-0.39188 0.04335-0.39188 0.04335s0.19211 0.06824 0.38677 0.07654l0.28206 0.01202c0.21125 9e-3 0.42505-0.04194 0.42505-0.04194s-0.20869-0.06895-0.41994-0.07795z"/><path d="m6.9158 16.955c-0.10971 0.17141-0.16888 0.37517-0.16888 0.37517s0.16024-0.13907 0.26995-0.31048l0.14963-0.23378c0.11556-0.18056 0.18059-0.39346 0.18059-0.39346s-0.1661 0.14822-0.28167 0.32878z"/><path d="m6.3349 17.421c0.20823-0.01559 0.41198-0.09101 0.41198-0.09101s-0.21271-0.04424-0.42094-0.02866l-0.15641 0.01171c-0.092874 7e-3 -0.18127 0.07374-0.18127 0.07374s0.097353 0.05288 0.19023 0.04593z"/><path d="m6.6384 17.729c0.081755-0.18756 0.10851-0.3991 0.10851-0.3991s-0.13676 0.16359-0.21851 0.35115l-0.057675 0.13232c-0.035995 0.08258-0.016987 0.18913-0.016987 0.18913s0.090997-0.0586 0.12699-0.14118z"/></g></g><g stroke-linecap="round" stroke-linejoin="round"><path d="m6.35 17.198h1.5875m-0.3875 0.69282-0.79375-1.3748m0.79375-0.010825-0.79375 1.3748" fill="#ae586b" fill-rule="evenodd" stroke="#ae586b" stroke-width=".26458"/><path d="m9.0411 15.815s-0.27848-1.9304 1e-7 -2.1167c0.38232-0.25566 1.7308 1.2933 2.1167 1.0583 0.48197-0.29356-0.12635-2.3521 0.26458-2.6458 0.44966-0.33789 2.2037 0.9981 2.6458 0.79375 0.58995-0.27264-0.29004-2.6492 0.26458-2.9104 0.54686-0.2576 2.1919 1.3354 2.6458 1.0583 0.34251-0.20904 1e-6 -2.1167 1e-6 -2.1167" fill="none" stroke="#dfa945" stroke-width=".58208"/></g></svg>
